<svg width="640" height="640" viewBox="0 0 640 640" fill="none" xmlns="http://www.w3.org/2000/svg">
<path d="M0 229.858C0 388.952 128.622 473.731 222.775 549.612C256 576.389 288 601.6 320 601.6C352 601.6 384 576.389 417.226 549.612C511.379 473.731 640 388.952 640 229.858C640 70.764 463.994 -42.0623 320 110.889C176.005 -42.0623 0 70.764 0 229.858Z" fill="#8D140B"/>
<path d="M396.624 377.471C400.209 378.297 403.056 379.743 405.165 381.809C407.273 383.668 408.328 386.043 408.328 388.935C397.362 407.937 383.866 422.705 367.84 433.239C351.814 443.566 334.417 448.73 315.649 448.73C297.303 448.73 281.382 444.186 267.886 435.098C254.601 425.803 244.268 412.791 236.888 396.06C229.718 379.33 226.133 359.502 226.133 336.575C226.133 315.095 229.086 295.576 234.99 278.02C241.105 260.257 249.646 244.869 260.611 231.857C271.576 218.844 284.651 208.827 299.833 201.804C315.016 194.782 331.675 191.27 349.81 191.27C370.898 191.27 387.557 196.331 399.787 206.451C412.018 216.572 418.133 230.411 418.133 247.967C418.133 257.468 416.13 266.04 412.123 273.682C408.328 281.118 403.056 287.004 396.308 291.342C389.56 295.473 381.863 297.538 373.217 297.538C370.898 297.538 368.367 297.332 365.626 296.918C363.095 296.505 360.038 295.886 356.453 295.06C359.616 291.135 362.463 286.281 364.993 280.498C367.524 274.715 369.527 268.622 371.003 262.219C372.479 255.609 373.217 249.516 373.217 243.94C373.217 234.232 370.898 226.796 366.259 221.633C361.619 216.469 354.977 213.887 346.331 213.887C336.842 213.887 327.88 217.192 319.445 223.801C311.01 230.204 303.524 239.189 296.987 250.756C290.45 262.116 285.283 275.231 281.488 290.102C277.903 304.767 276.11 320.465 276.11 337.195C276.11 353.925 278.324 368.487 282.753 380.879C287.392 393.272 293.824 402.876 302.048 409.692C310.483 416.508 320.394 419.916 331.781 419.916C343.801 419.916 355.504 416.199 366.891 408.763C378.278 401.121 388.189 390.69 396.624 377.471Z" fill="#FFF7F7"/>
</svg>
